<?xml version="1.0" standalone="no"?><!DOCTYPE svg PUBLIC "-//W3C//DTD SVG 1.1//EN" "http://www.w3.org/Graphics/SVG/1.1/DTD/svg11.dtd"><svg t="1725589879088" class="icon" viewBox="0 0 1024 1024" version="1.1" xmlns="http://www.w3.org/2000/svg" p-id="19334" xmlns:xlink="http://www.w3.org/1999/xlink" width="200" height="200"><path d="M122.88 287.232L512.512 62.464 559.104 89.6l26.624-15.36L512 31.744 96.256 271.872v331.776h26.624zM512 961.536L122.88 736.768v-51.2H96.256v66.56L512 992.256 795.136 829.44l-26.624-15.872zM651.264 112.64L624.64 128l276.48 159.232v449.536l-66.048 37.888 26.624 15.872 66.048-37.888V272.384z" fill="#2B85FB" p-id="19335"></path><path d="M512 515.584c0-0.512-124.928-72.192-124.928-72.192l124.416 71.168 304.64-174.592-124.928-71.68-3.584-2.56-304.128 175.616v86.016l3.584 2.048L512 601.088v-0.512l304.64-174.592v-86.016L512 514.56v1.024z" fill="#2B85FB" p-id="19336"></path><path d="M387.072 576.512l-55.296-31.744-124.928-71.68v85.504l124.928 71.68 55.296 31.744L512 733.696l304.64-174.592V473.6L512 648.192z" fill="#2B85FB" p-id="19337"></path><path d="M387.072 710.144L207.36 606.72v85.504l179.712 103.424L512 867.328l304.64-175.616v-86.016L512 781.312c0 0.512-124.928-71.168-124.928-71.168z m-179.2-370.176h-0.512v85.504l124.928 71.68 3.584 2.048v-85.504L640 238.08l-3.584-2.048L512 164.352z" fill="#2B85FB" p-id="19338"></path></svg>